<svg xmlns="http://www.w3.org/2000/svg" width="100" height="100" viewBox="0 0 100 100" fill-rule="evenodd"><path d="M63.05 56h29.9c2.452 0 3.34.255 4.237.735a5 5 0 0 1 2.08 2.08c.48.897.733 1.785.733 4.235v29.9c0 2.452-.255 3.34-.735 4.237a5 5 0 0 1-2.08 2.08c-.897.48-1.785.733-4.235.733h-29.9c-2.452 0-3.34-.255-4.237-.735a5 5 0 0 1-2.08-2.08C56.253 96.288 56 95.4 56 92.95v-29.9c0-2.452.255-3.34.735-4.237a5 5 0 0 1 2.08-2.08c.897-.48 1.785-.733 4.235-.733zm0-56h29.9c2.452 0 3.34.255 4.237.735a5 5 0 0 1 2.08 2.08c.48.897.733 1.785.733 4.235v29.9c0 2.452-.255 3.34-.735 4.237a5 5 0 0 1-2.08 2.08c-.897.48-1.785.733-4.235.733h-29.9c-2.452 0-3.34-.255-4.237-.735a5 5 0 0 1-2.08-2.08C56.253 40.288 56 39.4 56 36.95V7.05c0-2.452.255-3.34.735-4.237a5 5 0 0 1 2.08-2.08C59.712.253 60.6 0 63.05 0zm-56 56h29.9c2.452 0 3.34.255 4.237.735a5 5 0 0 1 2.08 2.08c.48.897.733 1.785.733 4.235v29.9c0 2.452-.255 3.34-.735 4.237a5 5 0 0 1-2.08 2.08c-.897.48-1.785.733-4.235.733H7.05c-2.452 0-3.34-.255-4.237-.735a5 5 0 0 1-2.08-2.08C.253 96.288 0 95.4 0 92.95v-29.9c0-2.452.255-3.34.735-4.237a5 5 0 0 1 2.08-2.08C3.712 56.253 4.6 56 7.05 56zm0-56h29.9c2.452 0 3.34.255 4.237.735a5 5 0 0 1 2.08 2.08c.48.897.733 1.785.733 4.235v29.9c0 2.452-.255 3.34-.735 4.237a5 5 0 0 1-2.08 2.08c-.897.48-1.785.733-4.235.733H7.05c-2.452 0-3.34-.255-4.237-.735a5 5 0 0 1-2.08-2.08C.253 40.288 0 39.4 0 36.95V7.05C0 4.6.255 3.7.735 2.814s1.183-1.6 2.08-2.08S4.6 0 7.05 0z" fill="#8FBC5D"></path><path d="M70 83.602c0 .957.8 1.733 1.766 1.733s1.766-.777 1.766-1.733v-7.686l10.288 10.1a1.79 1.79 0 0 0 2.496 0 1.71 1.71 0 0 0 0-2.45l-10.288-10.1h7.828c.976 0 1.766-.776 1.766-1.733S84.833 70 83.856 70h-12.1a1.81 1.81 0 0 0-.674.133c-.43.175-.776.514-.954.937-.1.2-.136.436-.136.66L70 83.602zm14.602-52.77c.957 0 1.733-.8 1.733-1.766S85.56 27.3 84.602 27.3h-7.686l10.098-10.288a1.79 1.79 0 0 0 0-2.496 1.71 1.71 0 0 0-2.45 0l-10.098 10.3v-7.83c0-.977-.776-1.766-1.733-1.766S71 16 71 16.977v12.1a1.81 1.81 0 0 0 .133.674 1.75 1.75 0 0 0 .937.955 1.69 1.69 0 0 0 .661.136l11.87.002zM16.92 70c-.957 0-1.733.8-1.733 1.766s.776 1.766 1.733 1.766h7.686L14.508 83.82a1.79 1.79 0 0 0 0 2.497 1.71 1.71 0 0 0 2.45 0L27.056 76.03v7.828c0 .977.776 1.766 1.733 1.766s1.733-.8 1.733-1.766v-12.1c0-.23-.047-.46-.133-.673a1.75 1.75 0 0 0-.937-.955 1.69 1.69 0 0 0-.661-.136H16.92V70zm13.913-53.08c0-.957-.8-1.733-1.766-1.733s-1.766.777-1.766 1.733v7.686L17.014 14.508a1.79 1.79 0 0 0-2.496 0 1.71 1.71 0 0 0 0 2.45l10.288 10.098h-7.828c-.976 0-1.766.776-1.766 1.733s.8 1.733 1.766 1.733h12.1a1.81 1.81 0 0 0 .674-.133c.43-.175.776-.514.954-.937.1-.2.136-.436.136-.66l.002-11.87z" fill-rule="nonzero" fill="#fff"></path></svg>
