<svg xmlns="http://www.w3.org/2000/svg" width="100" height="100" viewBox="0 0 100 100" fill-rule="evenodd"><path d="M64.706 31.342H45.6c-4.957 0-6.755.516-8.567 1.485s-3.235 2.392-4.204 4.204-1.485 3.6-1.485 8.567v19.107H10.37c-3.605 0-4.913-.375-6.23-1.08a7.35 7.35 0 0 1-3.057-3.057C.375 59.25 0 57.943 0 54.337V10.37c0-3.605.375-4.913 1.08-6.23A7.35 7.35 0 0 1 4.138 1.08C5.456.375 6.763 0 10.37 0h43.97c3.605 0 4.913.375 6.23 1.08a7.35 7.35 0 0 1 3.057 3.057c.705 1.318 1.08 2.625 1.08 6.23v20.973z" fill="#FBEFA8"></path><g fill="#B7A001"><path d="M27.94 14.624c0-.937-.758-1.697-1.697-1.697s-1.697.76-1.697 1.697v7.525l-9.887-9.887c-.663-.663-1.736-.663-2.4 0s-.663 1.736 0 2.4l9.887 9.887h-7.523c-.938 0-1.697.76-1.697 1.697s.758 1.697 1.697 1.697h11.62a1.71 1.71 0 0 0 .647-.131c.415-.17.746-.503.917-.917.086-.206.13-.427.13-.647V14.624z" fill-rule="nonzero"></path><path d="M45.37 35h43.97c3.605 0 4.913.375 6.23 1.08a7.35 7.35 0 0 1 3.057 3.057c.705 1.318 1.08 2.625 1.08 6.23v43.97c0 3.605-.375 4.913-1.08 6.23a7.35 7.35 0 0 1-3.057 3.057c-1.318.705-2.625 1.08-6.23 1.08H45.37c-3.605 0-4.913-.375-6.23-1.08a7.35 7.35 0 0 1-3.057-3.057c-.705-1.318-1.08-2.625-1.08-6.23V45.37c0-3.605.375-4.913 1.08-6.23a7.35 7.35 0 0 1 3.057-3.057c1.318-.705 2.625-1.08 6.23-1.08z"></path></g><path d="M55.56 60.892v9.372c0 3.322-1.848 5.324-5.412 5.324-4.334 0-5.148-2.882-5.148-4.444 0-1.342.616-2.2 1.716-2.2 1.298 0 1.628 1.012 1.628 2.1 0 1.034.484 1.782 1.76 1.782 1.188 0 1.848-.88 1.848-2.596v-9.328c0-1.078.704-1.804 1.804-1.804s1.804.726 1.804 1.804zm3.344 12.804v-12.2c0-1.606.836-2.112 2.112-2.112h5.522c3.036 0 5.478 1.496 5.478 5.016 0 2.882-2.002 5.016-5.5 5.016h-4.004v4.3c0 1.078-.704 1.804-1.804 1.804s-1.804-.726-1.804-1.804zm3.608-11.55v4.488h3.366c1.452 0 2.53-.88 2.53-2.244 0-1.584-1.122-2.244-2.904-2.244h-2.992zm26.576 6.182V74.3c0 .66-.506 1.2-1.232 1.2-1.034 0-1.32-.638-1.54-2.046-1.034 1.298-2.464 2.134-4.708 2.134-5.588 0-7.722-3.85-7.722-8.294 0-5.346 3.344-8.294 8.25-8.294 4.004 0 6.138 2.398 6.138 3.806 0 1.254-.924 1.584-1.694 1.584-1.782 0-1.122-2.486-4.642-2.486-2.486 0-4.444 1.628-4.444 5.632 0 3.124 1.54 5.28 4.488 5.28 1.914 0 3.586-1.298 3.762-3.234H83.4c-.77 0-1.628-.286-1.628-1.386 0-.88.506-1.386 1.408-1.386h4.444c1.056 0 1.474.528 1.474 1.518z" fill="#fff"></path></svg>
