<svg xmlns="http://www.w3.org/2000/svg" width="100" height="100" viewBox="0 0 100 100" fill-rule="evenodd"><path d="M16.024 0h67.95c5.572 0 7.593.58 9.63 1.67s3.636 2.688 4.725 4.725 1.67 4.058 1.67 9.63v67.95c0 5.572-.58 7.593-1.67 9.63s-2.688 3.636-4.725 4.725-4.058 1.67-9.63 1.67h-67.95c-5.572 0-7.593-.58-9.63-1.67S2.76 95.642 1.67 93.605 0 89.548 0 83.976v-67.95c0-5.572.58-7.593 1.67-9.63S4.358 2.76 6.395 1.67 10.452 0 16.024 0z" fill="#3CB6E2"></path><path d="M44.718 39.818c.563-1.225.882-2.572.882-4.018a9.8 9.8 0 1 0-19.6 0 9.8 9.8 0 0 0 9.8 9.8c1.446 0 2.793-.32 4.018-.882L45.6 50.5l-5.782 5.782c-1.225-.563-2.572-.882-4.018-.882a9.8 9.8 0 1 0 0 19.6 9.8 9.8 0 0 0 9.8-9.8c0-1.446-.32-2.793-.882-4.018L50.5 55.4l17.15 17.15H75V70.1L44.718 39.818zM35.8 40.7a4.9 4.9 0 1 1 0-9.8 4.9 4.9 0 1 1 0 9.8zm0 29.4a4.9 4.9 0 0 1 0-9.8 4.9 4.9 0 1 1 0 9.8zm14.7-18.375a1.21 1.21 0 1 1 0-2.45 1.21 1.21 0 1 1 0 2.45zM67.65 28.45l-14.7 14.7 4.9 4.9L75 30.9v-2.45h-7.35z" fill="#fff"></path></svg>
